<svg width="869" height="146" viewBox="0 0 869 146" fill="none" xmlns="http://www.w3.org/2000/svg">
<path fill-rule="evenodd" clip-rule="evenodd" d="M18.6998 74.7015C21.9767 48.4092 41.5722 27.0084 68.0053 24.9121C76.9401 24.2133 86.0061 25.72 94.2637 29.8692C127.425 46.5093 131.139 93.809 98.458 110.864C87.9503 116.346 75.127 117.35 64.226 112.48C54.0023 107.894 46.6622 99.487 43.7567 89.835C40.3269 78.4357 42.9484 65.4205 52.2109 56.4454C61.5172 47.4265 76.4595 44.5221 87.9066 51.2044C105.099 61.1841 106.716 86.079 89.3484 95.709C77.9451 102.042 63.5707 97.019 58.8957 86.385C52.2109 71.2075 66.1703 59.3061 73.3356 58.4544C60.4467 58.0613 47.8855 72.8671 53.3032 88.546C60.4904 109.314 90.4407 112.983 105.099 93.635C118.709 75.6623 110.582 49.8068 91.4456 39.5868C84.171 35.6998 76.1974 34.3895 68.4423 35.1975C44.8927 37.6433 30.4965 55.8121 28.5741 76.0772C25.7341 105.929 50.2448 131.61 80.2389 131.195C95.5744 130.977 110.844 124.251 121.658 112.721C144.88 87.935 140.554 49.0643 115.978 26.8119C104.968 16.854 90.5063 10.674 74.7556 10.4557C39.9774 9.97521 9.43731 36.4422 5.87647 70.9454C2.83994 100.317 18.678 127.592 42.6426 140.76C35.9142 137.659 29.5352 133.488 23.768 128.203C-6.07306 100.841 -8.08285 54.5237 19.246 24.7374C46.5748 -5.07079 92.9093 -7.07979 122.707 20.2388C150.56 45.7668 156.611 90.49 129.064 119.905C116.175 133.663 97.8901 140.956 79.8238 141C42.6208 141.109 14.3744 109.423 18.6998 74.7015Z" fill="#8EF1AC"/>
<path d="M206.197 120.8V20.64H216.28V110.72H266.379V120.8H206.197ZM296.47 60.64V50.72H316.478V110.72H326.561V120.8H296.47V110.72H306.554V60.64H296.47ZM306.554 40.8V20.64H316.478V40.8H306.554ZM356.652 120.8V20.64H366.736V50.72H404.67L416.835 62.72V108.64L404.67 120.8H356.652ZM404.19 108.16V63.2L366.736 60.16V111.2L404.19 108.16ZM431.88 62.72L444.045 50.72H479.898L492.063 62.72V90.72H441.484L445.005 108.16L492.063 107.68L488.541 118.24L446.446 121.28L431.88 109.76V62.72ZM482.459 80.8L479.418 63.2L449.007 60.16L441.964 67.2V80.8H482.459ZM507.108 120.8V50.72H517.192V62.72L529.197 50.72H567.291V60.64H535.759L517.192 77.28V120.8H507.108ZM602.504 50.72V20.64H612.428V50.72H632.435V60.64H611.947L614.988 108.16L642.519 111.2V120.8H614.348L602.504 108.64V60.64H582.336V50.72H602.504ZM662.686 60.16V50.72H705.582L717.747 62.72V120.8H669.729L657.564 108.64V87.68L669.729 75.68H708.623L704.142 63.2L662.686 60.16ZM707.663 110.72V85.76H672.13L666.688 100.16L673.09 110.72H707.663ZM732.792 145.76V50.72H780.81L792.975 62.72V108.64L780.81 120.8H742.876V145.76H732.792ZM780.33 108.16V63.2L742.876 60.16V111.2L780.33 108.16ZM808.02 145.76V50.72H856.038L868.203 62.72V108.64L856.038 120.8H818.104V145.76H808.02ZM855.558 108.16V63.2L818.104 60.16V111.2L855.558 108.16Z" fill="white"/>
</svg>
